<?xml version="1.0" encoding="utf-8"?>
<!-- Generator: Adobe Illustrator 16.0.0, SVG Export Plug-In . SVG Version: 6.00 Build 0)  -->
<!DOCTYPE svg PUBLIC "-//W3C//DTD SVG 1.1//EN" "http://www.w3.org/Graphics/SVG/1.1/DTD/svg11.dtd">
<svg version="1.1" id="Layer_1" xmlns="http://www.w3.org/2000/svg" xmlns:xlink="http://www.w3.org/1999/xlink" x="0px" y="0px"
	 width="24.819px" height="12.686px" viewBox="0 0 24.819 12.686" enable-background="new 0 0 24.819 12.686" xml:space="preserve">
<g transform="translate(0,-952.36218)">
	<path fill="#E6E7E8" d="M5.24,952.362c-1.672,0-3.034,1.362-3.034,3.035c0,1.194,0.693,2.191,1.698,2.665
		c-2.257,0.597-3.92,2.655-3.904,5.096c0.021,0.129,0.144,0.235,0.276,0.235c0.131,0,0.255-0.106,0.276-0.235
		c-0.018-2.594,2.061-4.717,4.653-4.734c1.63-0.01,3.146,0.835,4.007,2.216c-1.25,0.967-2.054,2.475-2.042,4.173
		c0.02,0.13,0.144,0.235,0.275,0.235c0.132,0,0.255-0.106,0.276-0.235c-0.018-2.594,2.061-4.716,4.654-4.734
		c2.592-0.017,4.705,2.08,4.722,4.673c0.012,0.138,0.156,0.255,0.276,0.252c0.179-0.009,0.262-0.12,0.276-0.27
		c-0.011-1.675-0.811-3.154-2.042-4.104c1.365-2.188,4.221-2.862,6.42-1.509c1.386,0.853,2.239,2.364,2.24,3.992
		c0.021,0.13,0.145,0.235,0.276,0.235c0.132,0,0.255-0.105,0.276-0.235c-0.001-1.819-0.942-3.504-2.49-4.458
		c-0.449-0.276-0.928-0.477-1.414-0.604c1.003-0.476,1.698-1.465,1.698-2.656c0-1.673-1.362-3.035-3.034-3.035
		s-3.033,1.362-3.033,3.035c0,1.194,0.687,2.191,1.689,2.664c-1.229,0.327-2.344,1.098-3.077,2.25
		c-0.43-0.265-0.905-0.462-1.404-0.595c1.001-0.474,1.688-1.47,1.688-2.665c0-1.673-1.361-3.035-3.033-3.035
		s-3.033,1.362-3.033,3.035c0,1.193,0.7,2.19,1.706,2.665c-0.505,0.133-0.979,0.335-1.413,0.604
		c-0.715-1.128-1.822-1.924-3.085-2.259c1.001-0.475,1.689-1.473,1.689-2.664C8.273,953.724,6.912,952.362,5.24,952.362
		L5.24,952.362z M5.24,952.914c1.374,0,2.482,1.108,2.482,2.483c0,1.375-1.108,2.483-2.482,2.483s-2.482-1.108-2.482-2.483
		C2.758,954.022,3.866,952.914,5.24,952.914L5.24,952.914z M19.58,952.914c1.375,0,2.482,1.108,2.482,2.483
		c0,1.375-1.107,2.483-2.482,2.483c-1.374,0-2.482-1.108-2.482-2.483C17.098,954.022,18.206,952.914,19.58,952.914z M12.41,954.569
		c1.374,0,2.482,1.108,2.482,2.483c0,1.375-1.108,2.483-2.482,2.483c-1.413-0.002-2.454-1.093-2.482-2.483
		C9.928,955.678,11.036,954.569,12.41,954.569z"/>
</g>
</svg>
