<?xml version="1.0" encoding="utf-8"?>
<!-- Generator: Adobe Illustrator 16.0.0, SVG Export Plug-In . SVG Version: 6.00 Build 0)  -->
<!DOCTYPE svg PUBLIC "-//W3C//DTD SVG 1.1//EN" "http://www.w3.org/Graphics/SVG/1.1/DTD/svg11.dtd">
<svg version="1.1" id="Layer_1" xmlns="http://www.w3.org/2000/svg" xmlns:xlink="http://www.w3.org/1999/xlink" x="0px" y="0px"
	 width="17.198px" height="16.02px" viewBox="0 0 17.198 16.02" enable-background="new 0 0 17.198 16.02" xml:space="preserve">
<g>
	<g>
		<path fill="#E6E7E8" d="M15.788,0H1.41C0.632,0,0,0.632,0,1.41v13.88c0,0.402,0.327,0.729,0.729,0.729h15.739
			c0.402,0,0.729-0.327,0.729-0.729V1.41C17.198,0.632,16.565,0,15.788,0z M1.41,0.452h14.378c0.528,0,0.958,0.43,0.958,0.958v1.054
			H0.452V1.41C0.452,0.882,0.881,0.452,1.41,0.452z M16.468,15.568H0.729c-0.153,0-0.278-0.125-0.278-0.278V2.916h16.294V15.29
			C16.746,15.443,16.622,15.568,16.468,15.568z"/>
		<path fill="#E6E7E8" d="M14.098,2.166c0.341,0,0.619-0.277,0.619-0.618c0-0.341-0.277-0.619-0.619-0.619s-0.619,0.278-0.619,0.619
			C13.479,1.888,13.756,2.166,14.098,2.166z M14.098,1.38c0.092,0,0.167,0.075,0.167,0.167c0,0.091-0.075,0.167-0.167,0.167
			c-0.092,0-0.167-0.075-0.167-0.167C13.931,1.455,14.006,1.38,14.098,1.38z"/>
		<path fill="#E6E7E8" d="M12.651,2.166c0.341,0,0.619-0.277,0.619-0.618c0-0.341-0.277-0.619-0.619-0.619
			c-0.341,0-0.618,0.278-0.618,0.619C12.033,1.888,12.311,2.166,12.651,2.166z M12.651,1.38c0.092,0,0.167,0.075,0.167,0.167
			c0,0.091-0.075,0.167-0.167,0.167c-0.092,0-0.167-0.075-0.167-0.167C12.485,1.455,12.56,1.38,12.651,1.38z"/>
		<path fill="#E6E7E8" d="M15.544,2.166c0.341,0,0.618-0.277,0.618-0.618c0-0.341-0.277-0.619-0.618-0.619
			c-0.341,0-0.619,0.278-0.619,0.619C14.925,1.888,15.203,2.166,15.544,2.166z M15.544,1.38c0.092,0,0.167,0.075,0.167,0.167
			c0,0.091-0.075,0.167-0.167,0.167c-0.092,0-0.167-0.075-0.167-0.167C15.377,1.455,15.452,1.38,15.544,1.38z"/>
		<path fill="#E6E7E8" d="M1.091,9.703h14.865V4.021H1.091V9.703z M1.543,4.473h13.961v4.779H1.543V4.473z"/>
		<path fill="#E6E7E8" d="M1.091,14.922h4.553v-4.768H1.091V14.922z M1.543,10.606h3.65v3.864h-3.65V10.606z"/>
		<path fill="#E6E7E8" d="M6.247,14.922H10.8v-4.768H6.247V14.922z M6.699,10.606h3.65v3.864h-3.65V10.606z"/>
		<path fill="#E6E7E8" d="M11.402,14.972h4.554v-4.767h-4.554V14.972z M11.854,10.656h3.65v3.864h-3.65V10.656z"/>
	</g>
</g>
</svg>
